# xmcd CD database file
#
# Track frame offsets:
#	150
#	26175
#	51886
#	77904
#	102745
#	127714
#	154691
#	180383
#	206182
#	229961
#	256014
#
# Disc length: 3658 seconds
#
# Revision: 0
# Processed by: cddbd v1.4PL0 Copyright (c) Steve Scherf et al.
# Submitted via: CDex 1.50beta10
#
DISCID=900e480b
DTITLE=Mamelang - Zulu Heartbeat
DYEAR=2000
DGENRE=New Age
TTITLE0=Sapheli Sizwe
TTITLE1=Lament
TTITLE2=Umuwehla
TTITLE3=Nizozisola
TTITLE4=Hamba
TTITLE5=Simkhethile
TTITLE6=Refitile
TTITLE7=Inganono
TTITLE8=Mamelang
TTITLE9=Aretshwaraneng
TTITLE10=Isikhathi
EXTD=YEAR: 2000
EXTT0=
EXTT1=
EXTT2=
EXTT3=
EXTT4=
EXTT5=
EXTT6=
EXTT7=
EXTT8=
EXTT9=
EXTT10=
PLAYORDER=
